<svg width="49" height="49" viewBox="0 0 49 49" fill="none" xmlns="http://www.w3.org/2000/svg">
<circle cx="24.5" cy="24.5" r="23" stroke="black" stroke-width="3"/>
<path d="M31.9733 23.4865L19.7183 17.359C19.553 17.2824 19.3711 17.2484 19.1893 17.26C19.0075 17.2717 18.8314 17.3286 18.6772 17.4256C18.523 17.5227 18.3955 17.6568 18.3063 17.8157C18.2172 17.9746 18.1691 18.1532 18.1667 18.3354V30.5851C18.1651 30.7722 18.2118 30.9564 18.3023 31.1201C18.3928 31.2838 18.524 31.4214 18.6832 31.5195C18.8424 31.6177 19.0242 31.6731 19.2111 31.6805C19.398 31.6879 19.5836 31.6469 19.75 31.5615L31.9733 25.434C32.1544 25.3431 32.3066 25.2037 32.413 25.0313C32.5194 24.8589 32.5757 24.6602 32.5757 24.4576C32.5757 24.2551 32.5194 24.0564 32.413 23.884C32.3066 23.7116 32.1544 23.5721 31.9733 23.4813V23.4865Z" fill="black"/>
</svg>
