<svg width="150" height="20" viewBox="0 0 150 20" fill="none" xmlns="http://www.w3.org/2000/svg">
<g clip-path="url(#clip0_1540:211)">
<path d="M0 13.3043C0.0121876 12.9233 0.171243 12.5614 0.444354 12.2934C0.717465 12.0253 1.0838 11.8716 1.46777 11.8638C1.85175 11.8561 2.22408 11.9949 2.50794 12.2517C2.79181 12.5085 2.96556 12.8636 2.99335 13.2439C2.79887 13.3139 2.63322 13.4458 2.52221 13.6191C2.4112 13.7924 2.36109 13.9972 2.37969 14.2018C2.37969 14.8853 2.91371 15.5503 4.7219 15.5503C5.98201 15.5503 7.26086 15.1969 7.26086 14.0437C7.26086 11.9186 0.117111 12.1511 0.117111 8.30081C0.117111 5.90137 2.7357 5.00391 5.15287 5.00391C7.31707 5.00391 9.4438 5.54797 9.4438 7.11039C9.45553 7.28537 9.43048 7.46086 9.37023 7.62571C9.30998 7.79056 9.21586 7.94118 9.09384 8.068C8.97182 8.19481 8.82456 8.29505 8.66143 8.36234C8.49829 8.42964 8.32284 8.46252 8.14622 8.45891C7.96295 8.46895 7.77954 8.44216 7.60696 8.38013C7.43438 8.31809 7.27621 8.22209 7.14191 8.0979C7.00762 7.9737 6.89997 7.82387 6.82543 7.65738C6.75088 7.49089 6.71098 7.31117 6.7081 7.129C6.88384 7.07664 7.03712 6.96789 7.14393 6.81979C7.25074 6.67169 7.30504 6.4926 7.29834 6.31058C7.29834 5.60842 6.59099 5.04111 5.15287 5.04111C3.71475 5.04111 2.98867 5.68282 2.98867 6.54308C2.98867 8.77047 10.0153 8.18456 10.0153 12.0348C10.0153 14.5319 7.53724 15.5875 4.74064 15.5875C2.50148 15.5875 0 14.983 0 13.3043Z" fill="#181024"/>
<path d="M22.0777 13.0109C22.0777 14.9035 22.2557 15.4103 23.7688 15.4103V15.4336H17.2949V15.4103C18.3395 15.4103 18.4379 14.7686 18.4379 13.0109V8.42126C18.4379 7.61679 18.3395 6.37057 17.1965 6.37057C16.5375 6.43806 15.9236 6.7345 15.4633 7.20758V13.0109C15.4633 14.4338 15.5617 15.4103 16.625 15.4103V15.4336H10.1324V15.4103C11.6502 15.4103 11.8235 14.9035 11.8235 13.0109V2.8923C11.8235 1.44613 11.7251 0.897423 9.89819 1.32988L15.5195 0.0185547L15.4586 7.17038C17.4073 5.5847 18.6065 5.02205 19.8104 5.02205C21.4031 5.02205 22.0918 5.95206 22.0918 7.92835L22.0777 13.0109Z" fill="#181024"/>
<path d="M36.5947 14.0855C35.6907 14.8481 34.5711 15.5503 33.3484 15.5503C31.7464 15.5503 31.0952 14.7784 31.1233 13.3136C30.252 14.6714 29.1371 15.5875 27.7833 15.5875C25.4411 15.5875 23.9234 13.6345 23.9234 10.7049C23.9234 7.38475 26.3265 5.00391 29.8257 5.00391C30.8591 5.03691 31.8733 5.28901 32.8004 5.74327L34.7491 5.02251V13.1648C34.7491 13.9693 34.9458 14.4575 35.686 14.4575C36.0232 14.4326 36.3419 14.2949 36.5901 14.0669L36.5947 14.0855ZM29.5119 14.611C30.1771 14.611 30.6034 14.0344 31.1046 13.2764V7.09179C31.1046 6.09667 31.0296 5.04111 29.8257 5.04111C28.5094 5.04111 27.952 6.60354 27.952 10.7049C27.952 11.4071 27.952 14.611 29.5259 14.611H29.5119Z" fill="#181024"/>
<path d="M47.8093 12.6991C47.8093 14.3778 47.9076 14.9451 49.7392 14.6521L44.1179 15.5822L44.1741 13.3083C43.3028 14.6661 42.1879 15.5822 40.8295 15.5822C38.4872 15.5822 36.9742 13.6291 36.9742 10.6996C36.9742 7.37941 39.3726 4.99856 42.8766 4.99856C43.3215 4.99635 43.7608 5.09663 44.1601 5.29152L44.1179 2.88743C44.1179 1.45986 44.0196 0.892541 42.188 1.325L47.8093 0.0136719V12.6991ZM42.5768 14.6103C43.2419 14.6103 43.6635 14.0337 44.1695 13.2757V7.0911C44.1695 6.09598 44.0898 5.04042 42.8906 5.04042C41.5743 5.04042 41.0168 6.60285 41.0168 10.7042C41.0168 11.4064 41.0168 14.6103 42.5908 14.6103H42.5768Z" fill="#181024"/>
<path d="M60.6212 11.7789C59.7545 13.8296 57.9838 15.5873 55.2481 15.5873C54.5695 15.6071 53.894 15.4878 53.2639 15.2368C52.6338 14.9858 52.0626 14.6085 51.5861 14.1284C51.1095 13.6484 50.7378 13.0759 50.4942 12.4468C50.2506 11.8177 50.1403 11.1455 50.1702 10.4722C50.1702 7.26831 52.3953 4.98047 55.8196 4.98047C59.2439 4.98047 61.0709 6.701 60.4432 9.16554H53.885C54.0208 11.9277 55.5433 13.1739 57.4967 13.1739C58.5553 13.1739 59.9138 12.8019 60.6024 11.7463L60.6212 11.7789ZM55.8196 5.02232C54.1051 5.02232 53.8709 7.57986 53.8709 8.77028C53.8709 8.90049 53.8709 9.02138 53.8709 9.14228H56.9345C57.2671 7.91931 57.3327 5.02232 55.8103 5.02232H55.8196Z" fill="#181024"/>
<path d="M73.1895 9.88603C73.1895 13.2062 70.7911 15.587 67.2871 15.587C66.2554 15.5534 65.2428 15.3013 64.3172 14.8477L62.3685 15.5684V2.8923C62.3685 1.44613 62.2701 0.897424 60.4385 1.32988L66.0598 0.0185547L65.9708 7.30058C66.8468 5.94276 67.9617 5.02669 69.3155 5.02669C71.6764 5.00344 73.1895 6.95648 73.1895 9.88603ZM67.2871 15.5498C68.6081 15.5498 69.1609 13.9874 69.1609 9.88603C69.1609 9.17922 69.1609 5.97996 67.5869 5.97996C66.9264 5.97996 66.5001 6.55657 65.9942 7.31453V13.4991C65.9942 14.4943 66.0738 15.5498 67.2731 15.5498H67.2871Z" fill="#181024"/>
<path d="M81.8276 5.15682H86.0436C84.8256 5.15682 84.2541 5.97988 83.1907 8.10497L79.3729 15.745C78.1924 18.1259 78.764 19.5721 80.0053 19.5721C80.1301 19.5788 80.255 19.5593 80.3717 19.515C80.4884 19.4706 80.5944 19.4023 80.6828 19.3146C80.7712 19.2268 80.84 19.1216 80.8847 19.0057C80.9294 18.8899 80.949 18.766 80.9422 18.6421C80.9328 18.3754 80.8321 18.12 80.6566 17.9179C80.4812 17.7158 80.2415 17.5792 79.9772 17.5307C80.099 16.2984 80.8673 15.6939 81.851 15.6939C82.1002 15.6819 82.3493 15.7219 82.5821 15.8111C82.8149 15.9004 83.0263 16.0369 83.2027 16.2121C83.3792 16.3873 83.5168 16.5971 83.6067 16.8282C83.6966 17.0593 83.7368 17.3065 83.7248 17.5539C83.7248 19.0373 82.2866 19.9766 80.7736 19.9766C79.3682 19.9766 78.6468 19.214 78.6468 18.0794C78.6821 17.2486 78.9098 16.4371 79.312 15.7078L75.0961 7.45395C74.2482 5.79387 74.0748 5.12891 72.6555 5.12891H79.8976C78.0238 5.12891 78.7171 6.49604 79.3261 7.72831L81.2982 11.6809L83.1064 8.05847C83.795 6.69134 84.5633 5.12891 81.7667 5.12891L81.8276 5.15682Z" fill="#181024"/>
<path d="M94.5458 5.00391C95.8855 5.00391 97.1269 5.84092 97.1269 7.4452C97.1409 7.73804 97.0947 8.03063 96.9912 8.30521C96.8877 8.57979 96.7291 8.83061 96.5249 9.04243C96.3207 9.25425 96.0753 9.42263 95.8035 9.53735C95.5317 9.65208 95.2393 9.71075 94.9439 9.70979C94.7185 9.7238 94.4925 9.6917 94.2801 9.61545C94.0677 9.53919 93.8733 9.42042 93.709 9.2665C93.5448 9.11259 93.4141 8.92682 93.3252 8.72071C93.2362 8.51459 93.1909 8.29254 93.192 8.06831C93.4881 7.97622 93.7452 7.78944 93.9231 7.53709C94.1011 7.28473 94.1899 6.981 94.1757 6.67328C94.1757 6.00832 93.8993 5.59912 93.2903 5.59912C92.3909 5.59912 91.6976 6.81278 91.262 8.00785V13.0206C91.262 14.9132 91.5384 15.4201 93.2482 15.4201V15.4433H85.9405V15.4201C87.4535 15.4201 87.6315 14.9132 87.6315 13.0206V7.93345C87.6315 6.48728 87.5332 5.93857 85.7016 6.37103L91.3229 5.06436L91.2667 7.95671C91.7866 6.51054 92.7095 5.02715 94.5458 5.02715V5.00391Z" fill="#181024"/>
<path d="M110.393 14.0855C109.489 14.8481 108.37 15.5503 107.147 15.5503C105.545 15.5503 104.894 14.7784 104.926 13.3136C104.05 14.6714 102.936 15.5875 101.582 15.5875C99.2396 15.5875 97.7218 13.6345 97.7218 10.7049C97.7218 7.38475 100.125 5.00391 103.629 5.00391C104.661 5.03757 105.673 5.28965 106.599 5.74327L108.548 5.02251V13.1648C108.548 13.9693 108.744 14.4575 109.484 14.4575C109.822 14.4326 110.14 14.2949 110.389 14.0669L110.393 14.0855ZM103.31 14.611C103.976 14.611 104.402 14.0344 104.903 13.2764V7.09179C104.903 6.09667 104.828 5.04111 103.624 5.04111C102.308 5.04111 101.75 6.60354 101.75 10.7049C101.75 11.4071 101.75 14.611 103.324 14.611H103.31Z" fill="#181024"/>
<path d="M122.301 13.0113C122.301 14.9039 122.474 15.4107 123.992 15.4107V15.434H117.499V15.4107C118.539 15.4107 118.638 14.769 118.638 13.0113V8.42167C118.638 7.61721 118.539 6.37098 117.401 6.37098C116.741 6.43972 116.127 6.73786 115.668 7.21265V13.0113C115.668 14.4342 115.766 15.4107 116.83 15.4107V15.434H110.356V15.4107C111.869 15.4107 112.047 14.9039 112.047 13.0113V7.9334C112.047 6.48723 111.948 5.93852 110.117 6.36633L115.738 5.05966L115.682 7.1894C117.64 5.60372 118.835 5.02246 120.029 5.02246C121.622 5.02246 122.31 5.95248 122.31 7.92876L122.301 13.0113Z" fill="#181024"/>
<path d="M134.968 12.6991C134.968 14.3778 135.066 14.9451 136.898 14.6521L131.276 15.5822L131.333 13.3083C130.461 14.6661 129.346 15.5822 127.988 15.5822C125.646 15.5822 124.133 13.6291 124.133 10.6996C124.133 7.37941 126.531 4.99856 130.035 4.99856C130.48 4.99635 130.919 5.09663 131.318 5.29152L131.276 2.88743C131.276 1.45986 131.178 0.892541 129.346 1.325L134.968 0.0136719V12.6991ZM129.735 14.6103C130.396 14.6103 130.822 14.0337 131.328 13.2757V7.0911C131.328 6.09598 131.248 5.04042 130.049 5.04042C128.733 5.04042 128.175 6.60285 128.175 10.7042C128.175 11.4064 128.175 14.6103 129.749 14.6103H129.735Z" fill="#181024"/>
<path d="M150 14.0855C149.096 14.8481 147.972 15.5503 146.754 15.5503C145.152 15.5503 144.5 14.7784 144.529 13.3136C143.657 14.6714 142.542 15.5875 141.184 15.5875C138.842 15.5875 137.329 13.6345 137.329 10.7049C137.329 7.38475 139.727 5.00391 143.231 5.00391C144.263 5.03642 145.276 5.28856 146.201 5.74327L148.15 5.02251V13.1648C148.15 13.9693 148.346 14.4575 149.087 14.4575C149.423 14.4308 149.741 14.2934 149.991 14.0669L150 14.0855ZM142.917 14.611C143.578 14.611 144.004 14.0344 144.51 13.2764V7.09179C144.51 6.09667 144.43 5.04111 143.231 5.04111C141.915 5.04111 141.357 6.60354 141.357 10.7049C141.357 11.4071 141.357 14.611 142.931 14.611H142.917Z" fill="#181024"/>
</g>
<defs>
<clipPath id="clip0_1540:211">
<rect width="150" height="20" fill="white"/>
</clipPath>
</defs>
</svg>
